<svg xmlns="http://www.w3.org/2000/svg" version="1.1" xmlns:xlink="http://www.w3.org/1999/xlink" xmlns:svgjs="http://svgjs.dev/svgjs" width="2000" height="984" viewBox="0 0 2000 984"><g transform="matrix(1,0,0,1,-1.2121212121212466,-0.13814219615596812)"><svg viewBox="0 0 396 195" data-background-color="#ede1d1" preserveAspectRatio="xMidYMid meet" height="984" width="2000" xmlns="http://www.w3.org/2000/svg" xmlns:xlink="http://www.w3.org/1999/xlink"><g id="tight-bounds" transform="matrix(1,0,0,1,0.2400000000000091,0.027375740091883927)"><svg viewBox="0 0 395.52 194.94524851981623" height="194.94524851981623" width="395.52"><g><svg viewBox="0 0 397.4975999999999 195.91997476241528" height="194.94524851981623" width="395.52"><g><rect width="397.4975999999999" height="5.604432585031073" x="0" y="100.55770773899258" fill="#1bde46" opacity="1" stroke-width="0" stroke="transparent" fill-opacity="1" class="rect-yte-0" data-fill-palette-color="primary" rx="1%" id="yte-0" data-palette-color="#1bde46"></rect></g><g><rect width="397.4975999999999" height="5.604432585031073" x="0" y="113.49778506882873" fill="#1bde46" opacity="1" stroke-width="0" stroke="transparent" fill-opacity="1" class="rect-yte-1" data-fill-palette-color="primary" rx="1%" id="yte-1" data-palette-color="#1bde46"></rect></g><g transform="matrix(1,0,0,1,0.9887999999999693,133.77350714346994)"><svg viewBox="0 0 395.52 62.14646761894533" height="62.14646761894533" width="395.52"><g id="textblocktransform"><svg viewBox="0 0 395.52 62.14646761894533" height="62.14646761894533" width="395.52" id="textblock"><g><svg viewBox="0 0 395.52 62.14646761894533" height="62.14646761894533" width="395.52"><g transform="matrix(1,0,0,1,0,0)"><svg width="395.52" viewBox="2.2 -35.16 227.3 35.72" height="62.14646761894533" data-palette-color="#1bde46"><path d="M31.69-4.49L31.69 0 2.22 0 2.22-4.49 2.2-4.49 20.58-30.66 2.22-30.66 2.22-35.16 31.69-35.16 31.69-30.66 13.31-4.49 31.69-4.49ZM65.31-14.16L65.31-14.16Q65.31-11.96 64.72-10.03 64.13-8.11 63.1-6.47 62.06-4.83 60.59-3.53 59.13-2.22 57.38-1.32 55.64-0.42 53.65 0.07 51.66 0.56 49.56 0.56L49.56 0.56Q47.46 0.56 45.48 0.07 43.5-0.42 41.76-1.32 40.01-2.22 38.55-3.53 37.08-4.83 36.04-6.47 35.01-8.11 34.42-10.05 33.84-11.99 33.84-14.16L33.84-14.16Q33.84-16.33 34.42-18.27 35.01-20.21 36.04-21.85 37.08-23.49 38.55-24.79 40.01-26.1 41.76-27 43.5-27.91 45.48-28.39 47.46-28.88 49.56-28.88L49.56-28.88Q51.66-28.88 53.65-28.39 55.64-27.91 57.38-27 59.13-26.1 60.59-24.79 62.06-23.49 63.1-21.85 64.13-20.21 64.72-18.27 65.31-16.33 65.31-14.16ZM56.91-14.16L56.91-14.16Q56.91-15.33 56.77-16.64 56.64-17.94 56.32-19.2 56-20.46 55.45-21.62 54.9-22.78 54.1-23.65 53.29-24.51 52.17-25.04 51.05-25.56 49.56-25.56L49.56-25.56Q48.14-25.56 47.04-25.02 45.94-24.49 45.13-23.6 44.31-22.71 43.76-21.53 43.21-20.36 42.87-19.1 42.53-17.85 42.38-16.56 42.23-15.28 42.23-14.16L42.23-14.16Q42.23-13.04 42.38-11.76 42.53-10.47 42.87-9.2 43.21-7.93 43.76-6.77 44.31-5.62 45.13-4.72 45.94-3.83 47.04-3.3 48.14-2.76 49.56-2.76L49.56-2.76Q51.02-2.76 52.15-3.28 53.27-3.81 54.09-4.69 54.9-5.57 55.44-6.71 55.98-7.86 56.31-9.13 56.64-10.4 56.77-11.69 56.91-12.99 56.91-14.16ZM100.29-14.16L100.29-14.16Q100.29-11.96 99.7-10.03 99.12-8.11 98.08-6.47 97.04-4.83 95.58-3.53 94.11-2.22 92.37-1.32 90.62-0.42 88.63 0.07 86.64 0.56 84.54 0.56L84.54 0.56Q82.44 0.56 80.46 0.07 78.49-0.42 76.74-1.32 75-2.22 73.53-3.53 72.07-4.83 71.03-6.47 69.99-8.11 69.4-10.05 68.82-11.99 68.82-14.16L68.82-14.16Q68.82-16.33 69.4-18.27 69.99-20.21 71.03-21.85 72.07-23.49 73.53-24.79 75-26.1 76.74-27 78.49-27.91 80.46-28.39 82.44-28.88 84.54-28.88L84.54-28.88Q86.64-28.88 88.63-28.39 90.62-27.91 92.37-27 94.11-26.1 95.58-24.79 97.04-23.49 98.08-21.85 99.12-20.21 99.7-18.27 100.29-16.33 100.29-14.16ZM91.89-14.16L91.89-14.16Q91.89-15.33 91.76-16.64 91.62-17.94 91.3-19.2 90.99-20.46 90.44-21.62 89.89-22.78 89.08-23.65 88.28-24.51 87.15-25.04 86.03-25.56 84.54-25.56L84.54-25.56Q83.12-25.56 82.03-25.02 80.93-24.49 80.11-23.6 79.29-22.71 78.74-21.53 78.19-20.36 77.85-19.1 77.51-17.85 77.36-16.56 77.22-15.28 77.22-14.16L77.22-14.16Q77.22-13.04 77.36-11.76 77.51-10.47 77.85-9.2 78.19-7.93 78.74-6.77 79.29-5.62 80.11-4.72 80.93-3.83 82.03-3.3 83.12-2.76 84.54-2.76L84.54-2.76Q86.01-2.76 87.13-3.28 88.25-3.81 89.07-4.69 89.89-5.57 90.42-6.71 90.96-7.86 91.29-9.13 91.62-10.4 91.76-11.69 91.89-12.99 91.89-14.16ZM115.72-13.13L115.72 0 106.02 0 106.02-35.16 125.02-35.16Q127.48-35.16 129.74-34.5 132-33.84 133.73-32.51 135.47-31.18 136.5-29.16 137.54-27.15 137.54-24.44L137.54-24.44Q137.54-22.73 137.05-21.23 136.56-19.73 135.7-18.48 134.83-17.24 133.66-16.24 132.49-15.23 131.1-14.55 129.7-13.87 128.15-13.5 126.6-13.13 125.02-13.13L125.02-13.13 115.72-13.13ZM127.73-24.44L127.73-24.44Q127.73-27.83 126.01-29.77 124.28-31.71 120.82-31.71L120.82-31.71 115.72-31.71 115.72-16.46 120.82-16.46Q122.67-16.46 123.98-17.05 125.29-17.65 126.12-18.73 126.95-19.8 127.34-21.25 127.73-22.71 127.73-24.44ZM169.91-28.2L169.91 0 161.66 0 161.66-3.37Q160.2-1.37 158.13-0.4 156.07 0.56 153.6 0.56L153.6 0.56Q150.38 0.56 147.84-0.59 145.3-1.73 143.54-3.72 141.79-5.71 140.86-8.4 139.93-11.08 139.93-14.16L139.93-14.16Q139.93-17.24 140.86-19.92 141.79-22.61 143.54-24.6 145.3-26.59 147.84-27.73 150.38-28.88 153.6-28.88L153.6-28.88Q155.24-28.88 156.72-28.39 158.19-27.91 159.43-27.01 160.66-26.12 161.6-24.87 162.54-23.61 163.08-22.07L163.08-22.07 166.74-28.2 169.91-28.2ZM161.61-14.16L161.61-14.16Q161.61-15.26 161.5-16.48 161.39-17.7 161.12-18.9 160.85-20.09 160.38-21.18 159.9-22.27 159.16-23.11 158.41-23.95 157.36-24.44 156.31-24.93 154.92-24.93L154.92-24.93Q153.53-24.93 152.5-24.43 151.48-23.93 150.75-23.08 150.01-22.24 149.54-21.14 149.06-20.04 148.79-18.85 148.53-17.65 148.42-16.44 148.31-15.23 148.31-14.16L148.31-14.16Q148.31-13.09 148.42-11.87 148.53-10.64 148.79-9.45 149.06-8.25 149.54-7.15 150.01-6.05 150.75-5.21 151.48-4.37 152.5-3.87 153.53-3.37 154.92-3.37L154.92-3.37Q156.19-3.37 157.18-3.89 158.17-4.42 158.91-5.3 159.66-6.18 160.17-7.3 160.68-8.42 161-9.62 161.32-10.82 161.46-12 161.61-13.18 161.61-14.16ZM200.77-25.71L200.77-25.71 196.13-18.02Q195.84-18.99 195.37-20.21 194.91-21.44 194.23-22.5 193.54-23.56 192.59-24.28 191.64-25 190.39-25L190.39-25Q189.25-25 188.4-24.41 187.56-23.83 186.97-22.89 186.39-21.95 186.01-20.76 185.63-19.58 185.42-18.37 185.22-17.16 185.14-16.05 185.07-14.94 185.07-14.14L185.07-14.14 185.07 0 176.79 0 176.79-28.2 179.97-28.2 183.31-21.63Q184-23.22 184.88-24.55 185.75-25.88 186.9-26.84 188.05-27.81 189.5-28.34 190.95-28.88 192.79-28.88L192.79-28.88Q193.74-28.88 194.91-28.72 196.08-28.56 197.2-28.19 198.33-27.81 199.28-27.2 200.23-26.59 200.77-25.71ZM229.5-21.22L229.5-21.22 225.94-19.8Q225.08-22.49 223.08-23.93 221.08-25.37 218.27-25.37L218.27-25.37Q216.76-25.37 215.57-24.89 214.39-24.41 213.5-23.58 212.61-22.75 211.98-21.66 211.36-20.56 210.97-19.31 210.58-18.07 210.41-16.74 210.24-15.41 210.24-14.16L210.24-14.16Q210.24-12.82 210.39-11.45 210.53-10.08 210.89-8.83 211.24-7.57 211.83-6.48 212.41-5.4 213.3-4.59 214.19-3.78 215.43-3.32 216.66-2.86 218.27-2.86L218.27-2.86Q219.57-2.86 220.74-3.25 221.91-3.64 222.89-4.35 223.86-5.05 224.62-6.03 225.38-7.01 225.82-8.2L225.82-8.2 229.4-6.88Q228.6-4.96 227.27-3.55 225.94-2.15 224.25-1.23 222.57-0.32 220.64 0.12 218.71 0.56 216.73 0.56L216.73 0.56Q213.53 0.56 210.8-0.52 208.07-1.61 206.08-3.58 204.09-5.54 202.96-8.24 201.84-10.94 201.84-14.16L201.84-14.16Q201.84-17.41 202.95-20.12 204.06-22.83 206.04-24.78 208.02-26.73 210.75-27.81 213.49-28.88 216.73-28.88L216.73-28.88Q218.78-28.88 220.74-28.43 222.69-27.98 224.36-27.04 226.03-26.1 227.37-24.66 228.7-23.22 229.5-21.22Z" opacity="1" transform="matrix(1,0,0,1,0,0)" fill="#1bde46" class="wordmark-text-0" data-fill-palette-color="primary" id="text-0"></path></svg></g></svg></g></svg></g></svg></g><g transform="matrix(1,0,0,1,141.67216756933016,0)"><svg viewBox="0 0 114.15326486133958 85.88641824938244" height="85.88641824938244" width="114.15326486133958"><g><svg xmlns="http://www.w3.org/2000/svg" xmlns:xlink="http://www.w3.org/1999/xlink" version="1.1" x="0" y="0" viewBox="5.0009964585389906 16.142437706914116 90.00024236406432 67.7142127088095" enable-background="new 0 0 100 100" xml:space="preserve" height="85.88641824938244" width="114.15326486133958" class="icon-icon-0" data-fill-palette-color="accent" id="icon-0"><g fill="#171515" data-fill-palette-color="accent"><path fill="#171515" d="M92.265 38.032C86.656 23.132 71.502 15.034 58.638 16.265 39.014 18.142 27.09 25.882 27.09 25.882 21.109 24.278 20.059 24.872 16.064 27.524 13.451 29.257 6.495 39.267 5.863 41.204 4.69 44.803 4.845 43.943 5.55 48.166 6.988 56.793 11.018 65.283 11.018 65.283 11.994 66.793 11.419 71.507 11.103 73.339 10.666 75.859 8.638 80.691 8.715 81.549 8.715 81.549 12.288 84.065 13.016 83.584 17.63 80.535 19.583 63.527 20.328 64.66 21.66 66.696 21.695 67.046 23.925 67.165 28.148 67.516 26.975 67.165 28.148 65.054 29.447 62.712 33.189 59.306 33.189 59.306 38.534 59.12 38.7 78.316 38.7 81.942 38.7 82.977 39.54 83.819 40.577 83.819 42.422 83.819 44.363 83.945 46.166 83.736 46.885 83.652 48.129 69.347 48.393 67.894 49.089 64.059 50.076 60.009 55.121 61.3 58.833 62.249 66.495 63.411 66.495 63.411 67.902 65.757 68.433 72.808 68.725 76.235V81.941C68.725 82.976 69.564 83.818 70.601 83.818H76.231A1.877 1.877 0 0 0 78.107 81.941C78.109 76.817 78.755 71.709 80.986 66.913 82.529 63.597 84.851 60.808 86.187 57.369 87.81 53.189 87.958 44.762 89.6 43.942 90.773 48.943 92.025 55.276 90.726 60.931 90.528 61.782 87.166 70.042 89.481 69.39 93.234 68.336 94.877 56.843 94.996 51.562 95.088 47.372 93.96 42.542 92.265 38.032M17.121 56.61A3.753 3.753 0 1 1 17.121 49.105 3.753 3.753 0 0 1 17.12 56.61M30.646 57C26.952 58.078 27.754 54.574 27.754 54.574 33.384 53.326 34.635 47.227 34.791 43.474S34.009 35.499 30.568 35.499C27.129 35.499 27.003 36.871 26.033 37.531 23.844 39.016 21.925 37.414 22.671 36.277 24.542 33.433 30.942 29.911 34.511 31.667 38.018 33.395 39.794 37.177 39.794 40.969 39.795 48.164 34.399 55.906 30.646 57" data-fill-palette-color="accent"></path></g></svg></g></svg></g><g></g></svg></g><defs></defs></svg><rect width="395.52" height="194.94524851981623" fill="none" stroke="none" visibility="hidden"></rect></g></svg></g></svg>